<?xml version="1.0" standalone="no"?>
<!DOCTYPE svg PUBLIC "-//W3C//DTD SVG 20010904//EN"
 "http://www.w3.org/TR/2001/REC-SVG-20010904/DTD/svg10.dtd">
<svg version="1.0" xmlns="http://www.w3.org/2000/svg"
 width="200.000000pt" height="200.000000pt" viewBox="0 0 200.000000 200.000000"
 preserveAspectRatio="xMidYMid meet">
<metadata>
Created by potrace 1.14, written by Peter Selinger 2001-2017
</metadata>
<g transform="translate(0.000000,200.000000) scale(0.100000,-0.100000)"
fill="#000000" stroke="none">
<path d="M967 1986 c-3 -7 1 -13 9 -13 7 0 11 3 9 7 -2 4 2 7 10 7 8 0 12 -4
10 -8 -3 -4 1 -6 7 -5 28 4 21 20 -9 22 -18 1 -34 -3 -36 -10z"/>
<path d="M948 1962 c-16 -2 -28 -10 -28 -17 0 -19 -17 -28 -51 -27 -15 0 -34
-7 -41 -16 -9 -12 -10 -14 0 -8 6 4 12 2 12 -3 0 -11 -26 -15 -62 -12 -20 3
-25 -25 -5 -32 11 -5 -29 -10 -75 -10 -11 0 -18 -7 -18 -18 0 -18 -10 -22 -61
-22 -9 0 -16 -5 -16 -12 0 -6 6 -12 13 -12 7 0 10 5 7 10 -3 6 -1 7 6 3 18
-12 5 -22 -31 -24 -59 -5 -72 -8 -76 -23 -2 -8 0 -10 5 -4 12 15 35 17 31 3
-3 -7 -22 -14 -44 -16 -23 -2 -46 -11 -56 -23 -9 -10 -26 -19 -38 -19 -15 0
-20 -5 -17 -15 8 -19 -4 -25 -48 -27 -30 -1 -36 -4 -32 -20 4 -15 -1 -18 -31
-19 -21 -1 -44 0 -52 1 -12 1 -13 -1 -3 -11 19 -19 16 -32 -7 -26 -11 3 -22 1
-25 -3 -3 -5 -14 -7 -24 -5 -10 2 -18 -3 -18 -11 0 -11 3 -11 16 -1 10 8 13 8
8 0 -4 -6 -2 -13 5 -15 7 -3 -8 -6 -32 -7 -25 -2 -53 -4 -62 -4 -13 -1 -14 -4
-6 -15 9 -10 13 -11 19 0 7 10 9 9 9 -3 0 -20 -27 -33 -33 -16 -3 7 -5 -9 -5
-36 0 -26 3 -45 8 -42 5 3 12 0 16 -6 4 -7 3 -9 -4 -5 -6 3 -13 2 -17 -4 -3
-5 0 -10 7 -10 9 0 10 -2 2 -8 -16 -10 -13 -207 3 -207 6 0 15 -3 19 -7 3 -4
-3 -5 -15 -3 -19 3 -22 0 -19 -23 2 -15 7 -30 13 -34 6 -5 5 -8 -2 -8 -9 0
-12 -24 -12 -85 1 -46 5 -82 10 -80 4 3 11 0 15 -6 4 -7 3 -9 -4 -5 -6 3 -13
2 -17 -4 -3 -5 0 -10 7 -10 9 0 10 -2 2 -8 -16 -10 -13 -207 3 -207 6 0 15 -3
19 -7 3 -4 -3 -5 -15 -3 -19 3 -22 0 -19 -23 2 -15 7 -30 13 -34 6 -5 5 -8 -2
-8 -8 0 -13 -15 -13 -39 0 -45 8 -71 22 -71 5 0 6 4 3 10 -3 5 -1 10 4 10 6 0
11 -9 11 -20 0 -19 12 -24 48 -23 9 1 10 -3 2 -12 -8 -9 -6 -14 5 -19 11 -4
14 -2 9 7 -5 9 -4 9 7 0 7 -7 21 -13 32 -13 10 0 15 -4 12 -10 -3 -5 1 -10 10
-10 10 0 13 5 9 12 -5 7 -3 8 6 3 10 -6 9 -11 -6 -22 -19 -14 -19 -15 1 -13
39 4 65 0 65 -11 0 -5 -6 -7 -12 -3 -10 5 -10 4 -1 -6 7 -7 29 -15 50 -17 21
-2 43 -9 48 -15 7 -8 6 -9 -4 -3 -9 5 -12 3 -9 -5 4 -13 17 -17 64 -22 12 -1
20 -7 17 -14 -6 -16 10 -24 52 -26 27 -1 35 -5 35 -20 0 -16 22 -24 53 -19 4
1 3 -7 -2 -17 -7 -14 -6 -19 4 -19 8 0 11 5 8 11 -3 6 0 5 8 -1 7 -7 23 -13
35 -13 17 0 21 -4 17 -21 -4 -14 -1 -20 8 -19 8 1 29 2 48 1 29 -1 32 -3 21
-16 -7 -8 -11 -15 -9 -16 2 0 13 -3 24 -6 11 -2 30 -5 42 -6 14 -1 22 -7 20
-16 -2 -16 59 -35 77 -24 5 4 6 2 3 -3 -11 -18 10 -35 45 -37 25 -1 34 -6 30
-15 -3 -10 -7 -11 -12 -2 -5 9 -9 8 -12 -2 -4 -10 4 -14 31 -13 23 0 38 5 38
12 0 7 -4 10 -8 7 -4 -2 -10 -1 -13 4 -4 7 19 12 66 15 13 1 14 5 7 19 -6 10
-6 18 -2 17 4 -1 25 -1 46 0 33 1 37 4 32 20 -4 15 -2 19 12 16 10 -1 27 5 37
14 11 9 16 10 12 4 -4 -8 -1 -13 8 -13 9 0 13 7 11 20 -3 15 2 20 16 20 11 0
22 7 25 15 4 8 11 15 16 15 6 0 5 -6 -2 -15 -10 -12 -10 -15 0 -15 6 0 14 9
17 21 4 14 12 19 24 16 11 -3 19 -2 19 3 0 4 8 7 18 6 11 -1 16 5 14 17 -3 16
15 21 74 20 6 0 11 6 11 13 0 17 -9 18 -23 4 -7 -7 -11 -7 -11 3 0 12 23 17
79 20 12 1 14 6 8 17 -9 18 -2 21 53 20 20 0 26 3 21 11 -5 9 -2 10 12 6 18
-7 18 -7 0 7 -17 14 -16 15 11 14 16 -1 38 4 49 10 14 8 15 12 4 12 -31 1 14
20 47 20 18 0 32 3 32 8 -4 22 3 34 16 29 8 -4 17 -2 20 3 3 5 14 7 25 5 11
-2 19 -1 19 3 -4 22 3 33 15 29 8 -3 26 3 41 14 25 21 25 21 23 155 -1 85 -6
134 -13 134 -5 0 -3 5 5 10 13 9 13 11 1 19 -16 10 -25 45 -10 35 5 -3 7 -10
4 -15 -4 -5 -2 -9 3 -9 5 0 9 18 9 40 0 23 -5 40 -11 40 -6 0 -4 5 4 10 13 9
13 11 1 19 -16 10 -25 45 -10 35 5 -3 7 -10 4 -15 -4 -5 -2 -9 3 -9 5 0 9 18
9 40 0 23 -5 40 -11 40 -6 0 -4 5 4 10 13 9 13 11 1 19 -16 10 -25 45 -10 35
5 -3 7 -10 4 -15 -4 -5 -2 -9 3 -9 5 0 9 18 9 40 0 23 -5 40 -11 40 -6 0 -4 5
4 10 13 9 13 11 1 19 -16 10 -25 45 -10 35 5 -3 7 -10 4 -15 -4 -5 -2 -9 3 -9
5 0 9 18 9 40 0 23 -5 40 -11 40 -6 0 -4 5 4 10 13 9 13 11 1 19 -16 10 -25
45 -10 35 5 -3 7 -10 4 -15 -4 -5 -2 -9 3 -9 4 0 8 27 8 60 0 33 -4 60 -8 60
-5 0 -6 -5 -2 -12 5 -7 3 -8 -6 -3 -11 7 -10 10 1 19 17 13 22 53 8 61 -5 4
-9 1 -9 -6 0 -13 -14 -3 -16 12 -1 5 -2 14 -3 19 0 6 -12 10 -25 10 -16 0 -23
5 -22 16 1 16 -17 24 -60 26 -13 0 -21 7 -20 17 1 15 -3 17 -40 20 -9 1 -12 6
-8 14 5 8 2 8 -9 -2 -14 -11 -17 -11 -18 0 -1 8 -1 18 0 22 1 4 -4 7 -11 6
-44 -5 -68 2 -68 21 0 16 -7 20 -30 20 -17 0 -30 5 -30 13 0 8 -4 7 -11 -3 -9
-13 -10 -12 -5 2 6 21 -2 27 -43 30 -36 3 -48 13 -30 24 7 4 9 3 6 -3 -3 -5 0
-10 7 -10 7 0 13 5 13 11 0 10 -25 15 -93 19 -22 1 -30 24 -8 24 7 0 10 -5 7
-10 -3 -6 -1 -7 5 -3 18 11 14 25 -5 24 -31 -3 -74 12 -68 22 3 6 3 10 -2 11
-44 4 -70 13 -83 26 -8 9 -9 13 -2 9 6 -4 12 -3 12 2 0 6 -16 10 -36 10 -38 0
-62 20 -41 34 7 5 2 7 -13 6 -42 -2 -84 17 -73 35 2 4 -4 7 -14 8 -58 4 -91 4
-115 1z m-238 -152 c0 -5 -2 -10 -4 -10 -3 0 -8 5 -11 10 -3 6 -1 10 4 10 6 0
11 -4 11 -10z m-234 -109 c-4 -5 0 -12 6 -14 8 -3 6 -6 -4 -6 -18 -1 -24 10
-11 22 9 10 15 8 9 -2z m-121 -89 c-3 -3 -11 0 -18 7 -9 10 -8 11 6 5 10 -3
15 -9 12 -12z m1390 -32 c-3 -5 -12 -10 -18 -10 -7 0 -6 4 3 10 19 12 23 12
15 0z m69 -46 c3 -8 2 -12 -4 -9 -6 3 -10 10 -10 16 0 14 7 11 14 -7z m83
-186 c-3 -7 -5 -2 -5 12 0 14 2 19 5 13 2 -7 2 -19 0 -25z m7 -113 c-4 -8 -8
-15 -10 -15 -2 0 -4 7 -4 15 0 8 4 15 10 15 5 0 7 -7 4 -15z m0 -120 c-4 -8
-8 -15 -10 -15 -2 0 -4 7 -4 15 0 8 4 15 10 15 5 0 7 -7 4 -15z m0 -120 c-4
-8 -8 -15 -10 -15 -2 0 -4 7 -4 15 0 8 4 15 10 15 5 0 7 -7 4 -15z m0 -120
c-4 -8 -8 -15 -10 -15 -2 0 -4 7 -4 15 0 8 4 15 10 15 5 0 7 -7 4 -15z m0
-120 c-4 -8 -8 -15 -10 -15 -2 0 -4 7 -4 15 0 8 4 15 10 15 5 0 7 -7 4 -15z
m5 -73 c-1 -15 -2 -15 -6 1 -2 9 -9 14 -15 11 -7 -4 -8 -2 -4 5 10 15 26 4 25
-17z m0 -80 c-1 -15 -2 -15 -6 1 -2 9 -9 14 -15 11 -7 -4 -8 -2 -4 5 10 15 26
4 25 -17z m-8 -45 c-10 -9 -11 -8 -5 6 3 10 9 15 12 12 3 -3 0 -11 -7 -18z m3
-44 c-5 -5 -12 -12 -16 -18 -4 -6 -8 -2 -8 8 0 9 7 17 17 17 9 0 12 -3 7 -7z
m-81 -50 c-3 -7 -6 -13 -8 -13 -2 0 -5 6 -8 13 -3 8 1 14 8 14 7 0 11 -6 8
-14z m-1103 -277 c0 -2 -7 -7 -16 -10 -8 -3 -12 -2 -9 4 6 10 25 14 25 6z
m430 -86 c0 -5 -2 -10 -4 -10 -3 0 -8 5 -11 10 -3 6 -1 10 4 10 6 0 11 -4 11
-10z"/>
<path d="M894 1952 c3 -5 0 -13 -6 -15 -9 -4 -10 -6 -1 -6 17 -1 25 16 12 25
-7 4 -9 3 -5 -4z"/>
<path d="M1097 1949 c7 -7 15 -10 18 -7 3 3 -2 9 -12 12 -14 6 -15 5 -6 -5z"/>
<path d="M1890 1510 c0 -5 5 -10 11 -10 5 0 7 5 4 10 -3 6 -8 10 -11 10 -2 0
-4 -4 -4 -10z"/>
<path d="M440 301 c0 -6 4 -13 10 -16 6 -3 7 1 4 9 -7 18 -14 21 -14 7z"/>
<path d="M523 254 c0 -7 6 -10 14 -7 7 3 13 8 13 12 0 4 -6 8 -13 8 -8 0 -14
-6 -14 -13z"/>
<path d="M887 49 c7 -7 15 -10 18 -7 3 3 -2 9 -12 12 -14 6 -15 5 -6 -5z"/>
</g>
</svg>
